<?xml version="1.0" encoding="UTF-8" standalone="no"?><!-- Generator: Gravit.io --><svg xmlns="http://www.w3.org/2000/svg" xmlns:xlink="http://www.w3.org/1999/xlink" style="isolation:isolate" viewBox="0 0 100 100" width="100pt" height="100pt"><defs><clipPath id="_clipPath_bbPZ4DZ1cJVpmi3faY4Tk5jztKV0Bn9U"><rect width="100" height="100"/></clipPath></defs><g clip-path="url(#_clipPath_bbPZ4DZ1cJVpmi3faY4Tk5jztKV0Bn9U)"><g><path d="M 21.323 24.5 L 81.678 24.5 C 83.097 24.5 84.25 25.653 84.25 27.073 L 84.25 34.178 C 84.25 35.597 83.097 36.75 81.678 36.75 L 21.323 36.75 C 19.903 36.75 18.75 35.597 18.75 34.178 L 18.75 27.073 C 18.75 25.653 19.903 24.5 21.323 24.5 Z" style="stroke:none;fill:#484848;stroke-miterlimit:10;"/><path d="M 21.323 41.25 L 81.678 41.25 C 83.097 41.25 84.25 42.403 84.25 43.823 L 84.25 50.928 C 84.25 52.347 83.097 53.5 81.678 53.5 L 21.323 53.5 C 19.903 53.5 18.75 52.347 18.75 50.928 L 18.75 43.823 C 18.75 42.403 19.903 41.25 21.323 41.25 Z" style="stroke:none;fill:#484848;stroke-miterlimit:10;"/><path d="M 21.323 58.05 L 81.678 58.05 C 83.097 58.05 84.25 59.203 84.25 60.622 L 84.25 67.727 C 84.25 69.147 83.097 70.3 81.678 70.3 L 21.323 70.3 C 19.903 70.3 18.75 69.147 18.75 67.727 L 18.75 60.622 C 18.75 59.203 19.903 58.05 21.323 58.05 Z" style="stroke:none;fill:#484848;stroke-miterlimit:10;"/></g></g></svg>